<svg width="21" height="21" viewBox="0 0 21 21" fill="none" xmlns="http://www.w3.org/2000/svg">
<g clip-path="url(#clip0_3802_483)">
<path d="M4.23684 16.9475H1.65789C0.743676 16.9475 0 16.2039 0 15.2897V3.50018C0 2.58596 0.743676 1.84229 1.65789 1.84229H4.23684C4.54212 1.84229 4.78947 2.08964 4.78947 2.39492C4.78947 2.70019 4.54212 2.94755 4.23684 2.94755H1.65789C1.35316 2.94755 1.10526 3.19544 1.10526 3.50018V15.2897C1.10526 15.5944 1.35316 15.8423 1.65789 15.8423H4.23684C4.54212 15.8423 4.78947 16.0896 4.78947 16.3949C4.78947 16.7002 4.54212 16.9475 4.23684 16.9475Z" fill="#2D2D2D"/>
<path d="M18.2368 12.7476C17.9316 12.7476 17.6842 12.5002 17.6842 12.195V3.50018C17.6842 3.19544 17.4363 2.94755 17.1316 2.94755H14.5526C14.2474 2.94755 14 2.70019 14 2.39492C14 2.08964 14.2474 1.84229 14.5526 1.84229H17.1316C18.0458 1.84229 18.7895 2.58596 18.7895 3.50018V12.195C18.7895 12.5002 18.5421 12.7476 18.2368 12.7476Z" fill="#2D2D2D"/>
<path d="M9.76316 18.7895H5.34211C4.42789 18.7895 3.68421 18.0458 3.68421 17.1316V1.65789C3.68421 0.743676 4.42789 0 5.34211 0H13.4474C14.3616 0 15.1053 0.743676 15.1053 1.65789V11.8595C15.1053 12.1647 14.8579 12.4121 14.5526 12.4121C14.2474 12.4121 14 12.1647 14 11.8595V1.65789C14 1.35316 13.7521 1.10526 13.4474 1.10526H5.34211C5.03737 1.10526 4.78947 1.35316 4.78947 1.65789V17.1316C4.78947 17.4363 5.03737 17.6842 5.34211 17.6842H9.76316C10.0684 17.6842 10.3158 17.9316 10.3158 18.2368C10.3158 18.5421 10.0684 18.7895 9.76316 18.7895Z" fill="#2D2D2D"/>
<path d="M11.9737 7.36853H6.81579C6.51051 7.36853 6.26316 7.12118 6.26316 6.8159V3.13169C6.26316 2.92229 6.38135 2.73107 6.56862 2.63734C6.75588 2.54398 6.98003 2.56395 7.14733 2.68951L8.23748 3.50731L9.00347 2.74096C9.21934 2.52509 9.56923 2.52527 9.7851 2.74078L10.5518 3.50713L11.6421 2.68951C11.8098 2.56395 12.0338 2.54416 12.2209 2.63734C12.4081 2.73107 12.5263 2.92229 12.5263 3.13169V6.8159C12.5263 7.12118 12.279 7.36853 11.9737 7.36853ZM7.36842 6.26327H11.4211V4.23677L10.8315 4.67895C10.6119 4.84391 10.3039 4.82215 10.1093 4.62768L9.39456 3.91315L8.68038 4.62768C8.48555 4.82215 8.17776 4.84409 7.95793 4.67913L7.36842 4.23695L7.36842 6.26327Z" fill="#2D2D2D"/>
<path d="M9.39473 15.4145C8.82249 15.4145 8.30116 15.0776 8.09735 14.5759C7.98239 14.2933 8.11857 13.9709 8.40137 13.8559C8.68344 13.7406 9.00635 13.8768 9.1213 14.16C9.15656 14.2465 9.27151 14.3093 9.39474 14.3093C9.61942 14.3093 9.80921 14.1639 9.80921 13.9919V13.9493C9.80921 13.7734 9.43072 13.6474 9.30029 13.6239C8.77321 13.5361 7.875 13.1383 7.875 12.2094V12.1667C7.875 11.3824 8.5568 10.7441 9.39474 10.7441C9.96698 10.7441 10.4883 11.0811 10.6921 11.5828C10.8071 11.8654 10.6709 12.1878 10.3881 12.3027C10.1059 12.4177 9.78294 12.2817 9.66817 11.9987C9.63291 11.9122 9.51796 11.8494 9.39473 11.8494C9.17005 11.8494 8.98026 11.9948 8.98026 12.1667V12.2094C8.98026 12.3853 9.35875 12.5112 9.48918 12.5348C10.0163 12.6226 10.9145 13.0203 10.9145 13.9493V13.9919C10.9145 14.7763 10.2327 15.4145 9.39473 15.4145Z" fill="#2D2D2D"/>
<path d="M9.39474 11.8489C9.08946 11.8489 8.8421 11.6016 8.8421 11.2963V10.4999C8.8421 10.1946 9.08946 9.94727 9.39474 9.94727C9.70001 9.94727 9.94737 10.1946 9.94737 10.4999V11.2963C9.94737 11.6016 9.70001 11.8489 9.39474 11.8489Z" fill="#2D2D2D"/>
<path d="M9.39474 16.2102C9.08946 16.2102 8.8421 15.9629 8.8421 15.6576V14.8612C8.8421 14.5559 9.08946 14.3086 9.39474 14.3086C9.70001 14.3086 9.94737 14.5559 9.94737 14.8612V15.6576C9.94737 15.9629 9.70001 16.2102 9.39474 16.2102Z" fill="#2D2D2D"/>
<path d="M16.0263 21.0001C13.2838 21.0001 11.0526 18.7689 11.0526 16.0264C11.0526 13.2839 13.2838 11.0527 16.0263 11.0527C18.7688 11.0527 21 13.2839 21 16.0264C21 18.7689 18.7688 21.0001 16.0263 21.0001ZM16.0263 12.158C13.8933 12.158 12.1579 13.8934 12.1579 16.0264C12.1579 18.1594 13.8933 19.8948 16.0263 19.8948C18.1593 19.8948 19.8947 18.1594 19.8947 16.0264C19.8947 13.8934 18.1593 12.158 16.0263 12.158Z" fill="#2D2D2D"/>
<path d="M15.3816 18.053C15.235 18.053 15.0945 17.9947 14.9909 17.8911L13.333 16.2332C13.1171 16.0175 13.1171 15.6674 13.333 15.4517C13.5488 15.2359 13.8986 15.2359 14.1144 15.4517L15.3816 16.7187L17.9382 14.1619C18.1537 13.946 18.5038 13.946 18.7197 14.1619C18.9356 14.3776 18.9356 14.7275 18.7197 14.9434L15.7723 17.8911C15.6687 17.9947 15.5282 18.053 15.3816 18.053Z" fill="#2D2D2D"/>
</g>
<defs>
<clipPath id="clip0_3802_483">
<rect width="21" height="21" fill="white"/>
</clipPath>
</defs>
</svg>
