<svg width="18" height="18" viewBox="0 0 18 18" fill="none" xmlns="http://www.w3.org/2000/svg">
<g clip-path="url(#clip0_3943_2449)">
<path d="M0.464844 15.5136V17.6175C0.464844 17.83 0.63485 17.9787 0.847369 18H12.2169C12.4294 18 12.5782 17.83 12.5994 17.6175V15.5136C12.5994 13.0059 10.9418 10.817 8.54039 10.1157C9.28419 9.71193 9.87923 9.07437 10.2405 8.33058C10.5593 8.58561 10.9205 8.77687 11.2818 8.90437V9.37192C11.2818 9.90319 11.7069 10.3495 12.2594 10.3495H13.1095C13.6408 10.3495 14.0871 9.92445 14.0871 9.37192V8.90437C14.5121 8.75562 14.8946 8.52184 15.2559 8.24555L15.6597 8.47933C16.1272 8.73436 16.7223 8.58557 16.9773 8.11806L17.4023 7.39552C17.6786 6.92797 17.5085 6.33293 17.041 6.05668L16.6372 5.82291C16.6798 5.61039 16.701 5.37661 16.701 5.16409C16.701 4.95158 16.6798 4.7178 16.6372 4.50528L17.041 4.27151C17.5086 4.01647 17.6786 3.42143 17.4023 2.95392C17.381 2.93267 17.3173 2.82643 16.9773 2.23138C16.701 1.76383 16.1272 1.61508 15.6597 1.87011L15.2559 2.10389C14.9159 1.8276 14.5121 1.59387 14.0871 1.44508V0.97757C14.0871 0.446294 13.662 0 13.1095 0H12.2594C11.7281 0 11.2818 0.425038 11.2818 0.97757V1.44512C10.8568 1.59387 10.4743 1.82765 10.113 2.10393L9.70922 1.87016C9.24167 1.61513 8.64663 1.76392 8.39164 2.23143L8.09414 2.74145C7.60538 2.52893 7.07406 2.44395 6.54278 2.44395C4.29014 2.44395 2.44124 4.25034 2.44124 6.50298C2.44124 7.99057 3.2488 9.37192 4.54513 10.0945C2.12248 10.7957 0.464844 13.0059 0.464844 15.5136ZM9.00794 2.61395C9.07171 2.50772 9.19921 2.4652 9.3267 2.52893L9.96426 2.8902C10.113 2.97522 10.283 2.95397 10.4106 2.84768C10.7931 2.48642 11.2394 2.23138 11.7494 2.08263C11.8981 2.04012 12.0257 1.89137 12.0257 1.72136V0.998826C12.0257 0.871332 12.1319 0.765051 12.2595 0.765051H13.1095C13.237 0.765051 13.3433 0.871289 13.3433 0.998826V1.72136C13.3433 1.89137 13.4495 2.04012 13.6196 2.08263C14.1084 2.23138 14.5759 2.48642 14.9584 2.84768C15.0859 2.95392 15.2559 2.97518 15.4047 2.8902L16.0423 2.52893C16.1485 2.46516 16.2973 2.50767 16.361 2.61395L16.786 3.33649C16.8498 3.44273 16.8072 3.59152 16.701 3.63399L16.0634 3.99526C15.9147 4.08029 15.8509 4.25029 15.8934 4.39904C16.0209 4.90906 16.0209 5.41913 15.8934 5.92914C15.8509 6.09915 15.9359 6.26916 16.0634 6.33293L16.701 6.6942C16.8072 6.75797 16.8497 6.88546 16.786 7.01295L16.361 7.73549C16.2972 7.84173 16.1697 7.88424 16.0635 7.82052L15.4259 7.45925C15.2771 7.37422 15.1071 7.39548 14.9796 7.50176C14.5971 7.86303 14.1508 8.11806 13.6408 8.26681C13.4708 8.30932 13.3645 8.45807 13.3645 8.62808V9.35062C13.3645 9.47811 13.2582 9.58439 13.1307 9.58439H12.2806C12.1531 9.58439 12.0468 9.47816 12.0468 9.35062V8.62808C12.0468 8.45807 11.9406 8.30932 11.7706 8.26681C11.303 8.13932 10.878 7.90554 10.5167 7.58678C10.6017 7.24677 10.6442 6.84299 10.6442 6.54545C10.6442 5.10032 9.87914 3.82525 8.75282 3.10272L9.00794 2.61395ZM3.16378 6.52419C3.16378 4.67533 4.67262 3.1877 6.52153 3.1877C8.37043 3.1877 9.87927 4.69654 9.87927 6.52419C9.87927 8.26681 8.56169 9.88194 6.50027 9.88194C4.67262 9.88194 3.16378 8.37309 3.16378 6.52419ZM6.09649 10.6257C6.139 10.6257 6.98903 10.6257 6.94656 10.6257C9.6455 10.6257 11.8344 12.8146 11.8344 15.5136V17.2349H1.20864V15.5136C1.20864 12.8146 3.39755 10.6257 6.09649 10.6257Z" fill="#2D2D2D"/>
<path d="M12.6632 7.24655C13.8108 7.24655 14.7246 6.31149 14.7246 5.16392C14.7246 4.01634 13.7895 3.10254 12.6419 3.10254C11.4944 3.10254 10.5806 4.0376 10.5806 5.18517C10.5806 6.31145 11.5156 7.24655 12.6632 7.24655ZM12.6632 3.84629C13.407 3.84629 13.9808 4.46259 13.9808 5.18513C13.9808 5.92892 13.3645 6.50271 12.6419 6.50271C11.9194 6.50271 11.3244 5.90767 11.3244 5.16387C11.3244 4.42008 11.9194 3.82503 12.6632 3.84629Z" fill="#2D2D2D"/>
</g>
<defs>
<clipPath id="clip0_3943_2449">
<rect width="18" height="18" fill="white"/>
</clipPath>
</defs>
</svg>
